<?xml version="1.0" encoding="utf-8"?>
<!-- Generator: Adobe Illustrator 24.0.3, SVG Export Plug-In . SVG Version: 6.00 Build 0)  -->
<svg version="1.1" id="Layer_1" xmlns="http://www.w3.org/2000/svg" xmlns:xlink="http://www.w3.org/1999/xlink" x="0px" y="0px"
	 viewBox="0 0 250 278" style="enable-background:new 0 0 250 278;" xml:space="preserve">
<style type="text/css">
	.st0{fill:#FFFFFF;}
</style>
<g>
	<g>
		<path class="st0" d="M125.06,248.7l0.02-0.04l-0.01-0.01l-0.03,0.05c0.01,0,0.01,0,0.01,0H125.06z"/>
		<path class="st0" d="M125.06,248.7l0.02-0.04l-0.01-0.01l-0.03,0.05c0.01,0,0.01,0,0.01,0H125.06z"/>
		<path class="st0" d="M131.04,259.59l-0.22-0.41C130.85,259.25,130.93,259.4,131.04,259.59z"/>
		<path class="st0" d="M130.82,259.17l0.22,0.41c0.01,0.02,0.02,0.04,0.03,0.05l0.02,0C130.99,259.48,130.91,259.33,130.82,259.17z"
			/>
		<polygon class="st0" points="125.1,248.7 125.07,248.67 125.06,248.7 		"/>
		<path class="st0" d="M15.27,198.08l-0.43-0.01C15.04,198.08,15.2,198.09,15.27,198.08z"/>
		<path class="st0" d="M14.74,198.08c0.03,0,0.06,0,0.1,0l0.43,0.01c-0.17-0.02-0.35-0.02-0.53-0.02V198.08z"/>
		<path class="st0" d="M27.2,198.12c0,0.01,0.01,0.03,0.02,0.03l0.02-0.03H27.2z"/>
		<path class="st0" d="M235.16,79.46l-0.24,0.01C235.05,79.47,235.14,79.47,235.16,79.46L235.16,79.46z"/>
		<path class="st0" d="M228.88,69.45c0.04-0.06,0.1-0.17,0.18-0.3c0.03-0.05,0.06-0.1,0.09-0.16l-0.01-0.01
			C229.05,69.14,228.95,69.29,228.88,69.45z"/>
		<polygon class="st0" points="40.67,87.17 40.64,87.17 40.81,87.44 40.83,87.44 		"/>
		<polygon class="st0" points="40.85,87.44 40.69,87.17 40.67,87.17 40.83,87.44 		"/>
		<path class="st0" d="M100.79,87.1l36.76-64.83l-0.03-0.01c1.3-2.15,2.07-4.65,2.09-7.34c0.07-7.98-6.38-14.54-14.36-14.61
			c-7.99-0.06-14.55,6.39-14.61,14.38c-0.02,2.69,0.71,5.21,1.97,7.38l-0.01,0l6.64,12.54l4.4-7.75l-4.31-8.09
			c-0.15-0.33-1.18-1.87-1.24-4.03c-0.1-3.88,3.22-7.01,7.1-6.98c3.88,0.03,7.02,3.21,6.98,7.09c-0.01,1.3-0.39,2.51-1.02,3.54
			c-0.09,0.14-34.97,61.26-34.97,61.26l-57.5,0.07l4.54,7.44L100.79,87.1z"/>
		<polygon class="st0" points="126.28,46.99 149.45,87.06 206.71,87 208.28,84.47 211.34,79.54 153.75,79.61 130.57,39.53 		"/>
		<polygon class="st0" points="123.97,231.11 100.61,190.78 43.08,190.83 38.66,198.16 38.57,198.29 96.32,198.23 119.66,238.57 		
			"/>
		<path class="st0" d="M235.16,79.47c-0.02,0-0.11,0-0.24,0l-0.22,0C234.85,79.48,235,79.46,235.16,79.47z"/>
		<g>
			<path class="st0" d="M40.81,87.44L27.46,65.46l-0.01,0.01c-1.24-2.19-3.03-4.09-5.37-5.43c-6.93-3.98-15.8-1.58-19.78,5.35
				c-3.97,6.94-1.57,15.81,5.36,19.79c2.33,1.34,4.88,1.94,7.38,1.9v0.03l14.34,0.18l-4.58-7.5l-9.4-0.17c-0.15,0.01-0.3,0-0.47,0
				c-1.21,0.02-2.44-0.26-3.57-0.91c-3.37-1.93-4.53-6.24-2.6-9.6c1.94-3.38,6.32-4.66,9.61-2.61c1.84,1.15,2.64,2.81,2.85,3.1
				l14.24,23.47l26.55,45.88l-34.76,59.16H27.2c0,0.01,0.01,0.03,0.02,0.03l-6.49,10.15c-0.07,0.14-0.16,0.26-0.25,0.39
				c-0.62,1.03-1.5,1.94-2.64,2.56c-3.41,1.84-7.69,0.57-9.54-2.83c-1.84-3.42-0.64-7.82,2.84-9.55c1.45-0.72,2.84-0.79,3.6-0.79
				c0.03,0,0.06,0,0.1,0c0.2,0.01,0.36,0.01,0.43,0.01l9.07,0.05l4.51-7.4l-13.82-0.14v0.01c-2.51-0.11-5.08,0.43-7.44,1.72
				c-7.03,3.8-9.65,12.61-5.85,19.64c3.8,7.03,12.62,9.65,19.64,5.85c2.36-1.28,4.21-3.14,5.5-5.29l0.02,0.01l9.06-14.24
				l34.65-59.34L40.81,87.44z"/>
			<polygon class="st0" points="40.85,87.44 40.69,87.17 40.67,87.17 40.64,87.17 40.81,87.44 40.83,87.44 			"/>
			<polygon class="st0" points="123.97,231.11 100.61,190.78 43.08,190.83 38.66,198.16 38.57,198.29 96.32,198.23 119.66,238.57 
							"/>
			<polygon class="st0" points="126.28,46.99 149.45,87.06 206.71,87 208.28,84.47 211.34,79.54 153.75,79.61 130.57,39.53 			"/>
			<path class="st0" d="M100.79,87.1l36.76-64.83l-0.03-0.01c1.3-2.15,2.07-4.65,2.09-7.34c0.07-7.98-6.38-14.54-14.36-14.61
				c-7.99-0.06-14.55,6.39-14.61,14.38c-0.02,2.69,0.71,5.21,1.97,7.38l-0.01,0l6.64,12.54l4.4-7.75l-4.31-8.09
				c-0.15-0.33-1.18-1.87-1.24-4.03c-0.1-3.88,3.22-7.01,7.1-6.98c3.88,0.03,7.02,3.21,6.98,7.09c-0.01,1.3-0.39,2.51-1.02,3.54
				c-0.09,0.14-34.97,61.26-34.97,61.26l-57.5,0.07l4.54,7.44L100.79,87.1z"/>
			<path class="st0" d="M228.88,69.45c0.04-0.06,0.1-0.17,0.18-0.3c0.03-0.05,0.06-0.1,0.09-0.16l-0.01-0.01
				C229.05,69.14,228.95,69.29,228.88,69.45z"/>
			<path class="st0" d="M125.06,248.7l0.04,0l-0.02-0.04l-0.01-0.01l-0.03,0.05c0.01,0,0.01,0,0.01,0H125.06z"/>
			<path class="st0" d="M235.16,79.47L235.16,79.47l-0.24,0l-0.22,0C234.85,79.48,235,79.46,235.16,79.47z"/>
			<path class="st0" d="M130.82,259.17c0.03,0.07,0.12,0.22,0.22,0.41c0.01,0.02,0.02,0.04,0.03,0.05l0.02,0
				C130.99,259.48,130.91,259.33,130.82,259.17z"/>
			<g>
				<path class="st0" d="M40.81,87.44L27.46,65.46l-0.01,0.01c-1.24-2.19-3.03-4.09-5.37-5.43c-6.93-3.98-15.8-1.58-19.78,5.35
					c-3.97,6.94-1.57,15.81,5.36,19.79c2.33,1.34,4.88,1.94,7.38,1.9v0.03l14.34,0.18l-4.58-7.5l-9.4-0.17c-0.15,0.01-0.3,0-0.47,0
					c-1.21,0.02-2.44-0.26-3.57-0.91c-3.37-1.93-4.53-6.24-2.6-9.6c1.94-3.38,6.32-4.66,9.61-2.61c1.84,1.15,2.64,2.81,2.85,3.1
					l14.24,23.47l26.55,45.88l-34.76,59.16H27.2c0,0.01,0.01,0.03,0.02,0.03l-6.49,10.15c-0.07,0.14-0.16,0.26-0.25,0.39
					c-0.62,1.03-1.5,1.94-2.64,2.56c-3.41,1.84-7.69,0.57-9.54-2.83c-1.84-3.42-0.64-7.82,2.84-9.55c1.45-0.72,2.84-0.79,3.6-0.79
					c0.03,0,0.06,0,0.1,0c0.2,0.01,0.36,0.01,0.43,0.01l9.07,0.05l4.51-7.4l-13.82-0.14v0.01c-2.51-0.11-5.08,0.43-7.44,1.72
					c-7.03,3.8-9.65,12.61-5.85,19.64c3.8,7.03,12.62,9.65,19.64,5.85c2.36-1.28,4.21-3.14,5.5-5.29l0.02,0.01l9.06-14.24
					l34.65-59.34L40.81,87.44z"/>
				<path class="st0" d="M40.81,87.44L27.46,65.46l-0.01,0.01c-1.24-2.19-3.03-4.09-5.37-5.43c-6.93-3.98-15.8-1.58-19.78,5.35
					c-3.97,6.94-1.57,15.81,5.36,19.79c2.33,1.34,4.88,1.94,7.38,1.9v0.03l14.34,0.18l-4.58-7.5l-9.4-0.17c-0.15,0.01-0.3,0-0.47,0
					c-1.21,0.02-2.44-0.26-3.57-0.91c-3.37-1.93-4.53-6.24-2.6-9.6c1.94-3.38,6.32-4.66,9.61-2.61c1.84,1.15,2.64,2.81,2.85,3.1
					l14.24,23.47l26.55,45.88l-34.76,59.16H27.2c0,0.01,0.01,0.03,0.02,0.03l-6.49,10.15c-0.07,0.14-0.16,0.26-0.25,0.39
					c-0.62,1.03-1.5,1.94-2.64,2.56c-3.41,1.84-7.69,0.57-9.54-2.83c-1.84-3.42-0.64-7.82,2.84-9.55c1.45-0.72,2.84-0.79,3.6-0.79
					c0.03,0,0.06,0,0.1,0c0.2,0.01,0.36,0.01,0.43,0.01l9.07,0.05l4.51-7.4l-13.82-0.14v0.01c-2.51-0.11-5.08,0.43-7.44,1.72
					c-7.03,3.8-9.65,12.61-5.85,19.64c3.8,7.03,12.62,9.65,19.64,5.85c2.36-1.28,4.21-3.14,5.5-5.29l0.02,0.01l9.06-14.24
					l34.65-59.34L40.81,87.44z"/>
				<polygon class="st0" points="40.85,87.44 40.69,87.17 40.67,87.17 40.64,87.17 40.81,87.44 40.83,87.44 				"/>
				<polygon class="st0" points="40.85,87.44 40.69,87.17 40.67,87.17 40.64,87.17 40.81,87.44 40.83,87.44 				"/>
				<path class="st0" d="M100.79,87.1l36.76-64.83l-0.03-0.01c1.3-2.15,2.07-4.65,2.09-7.34c0.07-7.98-6.38-14.54-14.36-14.61
					c-7.99-0.06-14.55,6.39-14.61,14.38c-0.02,2.69,0.71,5.21,1.97,7.38l-0.01,0l6.64,12.54l4.4-7.75l-4.31-8.09
					c-0.15-0.33-1.18-1.87-1.24-4.03c-0.1-3.88,3.22-7.01,7.1-6.98c3.88,0.03,7.02,3.21,6.98,7.09c-0.01,1.3-0.39,2.51-1.02,3.54
					c-0.09,0.14-34.97,61.26-34.97,61.26l-57.5,0.07l4.54,7.44L100.79,87.1z"/>
				<path class="st0" d="M100.79,87.1l36.76-64.83l-0.03-0.01c1.3-2.15,2.07-4.65,2.09-7.34c0.07-7.98-6.38-14.54-14.36-14.61
					c-7.99-0.06-14.55,6.39-14.61,14.38c-0.02,2.69,0.71,5.21,1.97,7.38l-0.01,0l6.64,12.54l4.4-7.75l-4.31-8.09
					c-0.15-0.33-1.18-1.87-1.24-4.03c-0.1-3.88,3.22-7.01,7.1-6.98c3.88,0.03,7.02,3.21,6.98,7.09c-0.01,1.3-0.39,2.51-1.02,3.54
					c-0.09,0.14-34.97,61.26-34.97,61.26l-57.5,0.07l4.54,7.44L100.79,87.1z"/>
				<path class="st0" d="M228.88,69.45c0.04-0.06,0.1-0.17,0.18-0.3c0.03-0.05,0.06-0.1,0.09-0.16l-0.01-0.01
					C229.05,69.14,228.95,69.29,228.88,69.45z"/>
				<path class="st0" d="M228.88,69.45c0.04-0.06,0.1-0.17,0.18-0.3c0.03-0.05,0.06-0.1,0.09-0.16l-0.01-0.01
					C229.05,69.14,228.95,69.29,228.88,69.45z"/>
				<path class="st0" d="M235.16,79.47L235.16,79.47l-0.24,0l-0.22,0C234.85,79.48,235,79.46,235.16,79.47z"/>
				<path class="st0" d="M235.16,79.47L235.16,79.47l-0.24,0l-0.22,0C234.85,79.48,235,79.46,235.16,79.47z"/>
				<polygon class="st0" points="126.28,46.99 149.45,87.06 206.71,87 208.28,84.47 211.34,79.54 153.75,79.61 130.57,39.53 				"/>
				<polygon class="st0" points="126.28,46.99 149.45,87.06 206.71,87 208.28,84.47 211.34,79.54 153.75,79.61 130.57,39.53 				"/>
				<polygon class="st0" points="123.97,231.11 100.61,190.78 43.08,190.83 38.66,198.16 38.57,198.29 96.32,198.23 119.66,238.57 
									"/>
				<polygon class="st0" points="123.97,231.11 100.61,190.78 43.08,190.83 38.66,198.16 38.57,198.29 96.32,198.23 119.66,238.57 
									"/>
				<path class="st0" d="M125.06,248.7l0.04,0l-0.02-0.04l-0.01-0.01l-0.03,0.05c0.01,0,0.01,0,0.01,0H125.06z"/>
				<path class="st0" d="M125.06,248.7l0.04,0l-0.02-0.04l-0.01-0.01l-0.03,0.05c0.01,0,0.01,0,0.01,0H125.06z"/>
			</g>
			<g>
				<polygon class="st0" points="209.41,190.61 210.02,191.5 208.76,189.5 				"/>
				<path class="st0" d="M130.82,259.17c0.03,0.07,0.12,0.22,0.22,0.41c0.01,0.02,0.02,0.04,0.03,0.05l0.02,0
					C130.99,259.48,130.91,259.33,130.82,259.17z"/>
				<path class="st0" d="M208.03,192.42l-1.11-1.76l-57.38,0.06l-36.99,65.1l0.03,0.02c-1.29,2.15-2.04,4.67-2.04,7.36
					c0,7.99,6.5,14.49,14.5,14.49c7.98,0,14.49-6.5,14.49-14.49c0-2.69-0.75-5.21-2.03-7.36l0.01-0.01l-6.83-12.42l-4.3,7.59
					l4.44,8.18c0.1,0.15,0.18,0.31,0.27,0.46l-0.02,0c0.36,0.67,0.96,1.94,1.02,3.56c0.14,3.88-3.16,7.04-7.04,7.04
					c-3.88,0-7.04-3.16-7.04-7.04c0-1.3,0.38-2.51,1-3.56c0.08-0.13,0.14-0.27,0.22-0.4l5.81-10.54l28.82-50.53l57.78-0.06
					l-0.27-0.41L208.03,192.42z"/>
				<path class="st0" d="M230.17,207.54L230.17,207.54c-0.09-0.12-0.18-0.24-0.26-0.38L230.17,207.54z"/>
				<path class="st0" d="M230.17,207.54l-0.26-0.38C229.98,207.3,230.08,207.42,230.17,207.54L230.17,207.54z"/>
				<path class="st0" d="M223.07,197.23H223l0.04,0.06c0-0.01,0-0.01,0.01-0.01C223.05,197.26,223.06,197.25,223.07,197.23z"/>
				<path class="st0" d="M242.49,192.1c-2.36-1.3-4.92-1.85-7.43-1.77l0.35,0L221,190.32l4.35,7.45l9.43,0.03
					c0.36,0.03,2.21-0.14,4.13,0.83c3.47,1.75,4.65,6.16,2.78,9.56c-1.87,3.4-6.16,4.64-9.56,2.77c-1.14-0.62-2.01-1.54-2.63-2.58
					c-0.07-0.13-0.17-0.25-0.24-0.39l-6.3-9.95l-34.91-59.19l28.66-49.43l12.18-19.97c0.07-0.16,0.17-0.31,0.26-0.47l0.01,0.01
					c0.41-0.65,1.21-1.8,2.58-2.65c3.29-2.04,7.68-0.76,9.61,2.61c1.92,3.37,0.76,7.68-2.61,9.6c-1.13,0.65-2.36,0.91-3.57,0.9
					c-0.15,0-0.3,0.01-0.46,0.01l0.22,0c-1.47,0.02-9.72,0.16-9.72,0.16l-4.55,7.5l14.41-0.18v-0.03c2.51,0.04,5.06-0.56,7.39-1.9
					c6.92-3.97,9.34-12.85,5.36-19.78c-3.98-6.93-12.85-9.33-19.78-5.36c-2.33,1.34-4.14,3.24-5.38,5.44l-0.01-0.01l-21.74,36.34
					l-21.46,37.22l29.33,50.64l1.35,2.13l-0.09-0.13l13.02,20.69l0.02-0.01c1.28,2.15,3.11,4.02,5.46,5.31
					c7,3.85,15.84,1.29,19.68-5.71C252.06,204.78,249.49,195.95,242.49,192.1z"/>
				<polygon class="st0" points="208.76,189.5 210.02,191.5 210.11,191.63 				"/>
			</g>
		</g>
		<path class="st0" d="M40.81,87.44L27.46,65.46l-0.01,0.01c-1.24-2.19-3.03-4.09-5.37-5.43c-6.93-3.98-15.8-1.58-19.78,5.35
			c-3.97,6.94-1.57,15.81,5.36,19.79c2.33,1.34,4.88,1.94,7.38,1.9v0.03l14.34,0.18l-4.58-7.5l-9.4-0.17c-0.15,0.01-0.3,0-0.47,0
			c-1.21,0.02-2.44-0.26-3.57-0.91c-3.37-1.93-4.53-6.24-2.6-9.6c1.94-3.38,6.32-4.66,9.61-2.61c1.84,1.15,2.64,2.81,2.85,3.1
			l14.24,23.47l26.55,45.88l-34.76,59.16h0.02l-0.03,0.06c0-0.01,0-0.01,0-0.01c0,0,0-0.01,0-0.01c0,0,0,0,0,0l-6.49,10.15
			c-0.07,0.14-0.16,0.26-0.25,0.39c-0.62,1.03-1.5,1.94-2.64,2.56c-3.41,1.84-7.69,0.57-9.54-2.83c-1.84-3.42-0.64-7.82,2.84-9.55
			c1.45-0.72,2.84-0.79,3.6-0.79v-0.02c0.18,0,0.36,0,0.53,0.02l9.07,0.05l4.51-7.4l-13.82-0.14v0.01
			c-2.51-0.11-5.08,0.43-7.44,1.72c-7.03,3.8-9.65,12.61-5.85,19.64c3.8,7.03,12.62,9.65,19.64,5.85c2.36-1.28,4.21-3.14,5.5-5.29
			l0.02,0.01l9.06-14.24l34.65-59.34L40.81,87.44z M32.23,190.7h-0.2l1.88-2.93L32.23,190.7z"/>
		<path class="st0" d="M27.23,198.17C27.23,198.17,27.23,198.17,27.23,198.17l0.04-0.05h-0.02l-0.02,0.04
			C27.22,198.16,27.23,198.16,27.23,198.17z"/>
		<polygon class="st0" points="32.23,190.7 33.91,187.77 32.03,190.7 		"/>
		<polygon class="st0" points="27.24,198.12 27.22,198.15 27.22,198.16 		"/>
	</g>
	<g>
		<path class="st0" d="M102.57,128.37c-3.4,0-5.87-1.85-7.55-5.65L94.71,122L88,123.89l0.35,0.92c1.33,3.52,3.26,6.2,5.75,7.97
			c2.5,1.78,5.41,2.69,8.66,2.69c3.37,0,6.29-1.17,8.67-3.48c2.39-2.31,3.6-5.15,3.6-8.44c0-1.4-0.23-2.75-0.67-4.01
			c-0.44-1.26-1.13-2.48-2.03-3.6c-0.9-1.12-2.05-2.16-3.44-3.08c-1.35-0.9-3.25-1.87-5.65-2.9c-2.26-0.97-3.86-1.86-4.76-2.65
			c-0.78-0.68-1.16-1.42-1.16-2.26c0-1,0.42-1.76,1.31-2.41c0.96-0.69,2.25-1.05,3.85-1.05c1.47,0,2.58,0.23,3.3,0.68
			c0.81,0.51,1.73,1.3,2.74,2.35l0.57,0.6l5.4-4.32l-0.54-0.7c-1.46-1.88-3.3-3.31-5.49-4.22c-2.16-0.91-4.32-1.37-6.42-1.37
			c-3.23,0-6.01,1.01-8.28,3c-2.31,2.02-3.48,4.51-3.48,7.4c0,1.2,0.21,2.35,0.62,3.41c0.41,1.04,1.05,2.1,1.93,3.14
			c0.87,1.04,1.91,1.94,3.09,2.69c1.15,0.72,2.79,1.53,4.88,2.38c1.98,0.81,3.43,1.53,4.32,2.15c0.84,0.58,1.55,1.33,2.11,2.22
			c0.54,0.85,0.81,1.7,0.81,2.52c0,1.41-0.49,2.54-1.51,3.46C105.47,127.91,104.18,128.37,102.57,128.37z"/>
		<polygon class="st0" points="149.42,112.8 154.99,134.24 161.78,134.24 150.76,92.32 139.16,120.12 127.49,92.33 116.48,134.24 
			123.24,134.24 128.89,112.6 139.17,137.07 		"/>
		<polygon class="st0" points="105.91,170.22 94.98,145.57 87.71,145.57 105.84,186.54 124.24,145.57 116.92,145.57 		"/>
		<path class="st0" d="M138.72,145.51h-9.8v38.48l9.86,0c7,0,12.43-1.96,16.14-5.83c3.7-3.86,5.58-8.37,5.58-13.41
			c0-4.99-1.81-9.48-5.39-13.36C151.51,147.49,145.99,145.51,138.72,145.51z M135.74,152.21h1.63c3.62,0,6.52,0.38,8.63,1.13
			c2.02,0.72,3.8,2.16,5.28,4.27c1.48,2.12,2.23,4.52,2.23,7.14c0,2.08-0.47,4.02-1.39,5.75c-0.92,1.73-2.18,3.13-3.74,4.18
			c-1.58,1.06-3.26,1.75-5.01,2.06c-1.71,0.31-4.27,0.47-7.63,0.49V152.21z"/>
	</g>
</g>
</svg>
