<?xml version="1.0" encoding="utf-8"?>
<!-- Generator: Adobe Illustrator 24.0.3, SVG Export Plug-In . SVG Version: 6.00 Build 0)  -->
<svg version="1.1" id="Layer_1" xmlns="http://www.w3.org/2000/svg" xmlns:xlink="http://www.w3.org/1999/xlink" x="0px" y="0px"
	 viewBox="0 0 590 279" style="enable-background:new 0 0 590 279;" xml:space="preserve">
<style type="text/css">
	.st0{fill:#FFFFFF;}
</style>
<g>
	<polygon class="st0" points="80.2,209.9 86,220 91.8,209.9 105.7,209.9 98.7,197.9 105.7,185.9 91.7,185.9 86,175.8 80.2,185.9 
		66.3,185.9 73.3,197.9 66.3,209.9 	"/>
	<polygon class="st0" points="7.5,139.2 0.6,151.2 14.5,151.2 20.3,161.2 26,151.2 40,151.2 33,139.2 40,127.1 26,127.1 20.3,117.1 
		14.5,127.1 0.6,127.1 	"/>
	<polygon class="st0" points="80.2,92.4 86,102.5 91.8,92.4 105.7,92.4 98.7,80.4 105.7,68.3 91.7,68.3 86,58.4 80.2,68.3 
		66.3,68.3 73.3,80.4 66.3,92.4 	"/>
	<polygon class="st0" points="145.9,33.7 151.7,43.7 157.5,33.7 171.4,33.7 164.4,21.7 171.4,9.6 157.5,9.6 151.7,-0.4 145.9,9.6 
		132,9.6 139,21.7 132,33.7 	"/>
	<polygon class="st0" points="145.9,269 151.7,279 157.5,269 171.4,269 164.4,256.9 171.4,244.9 157.5,244.9 151.7,234.9 
		145.9,244.9 132,244.9 139,256.9 132,269 	"/>
</g>
<g>
	<path class="st0" d="M239.5,92.1l-12.9,10.3c-3.4-3.5-6.5-6.2-9.2-7.9c-2.8-1.7-6.7-2.6-12-2.6c-5.7,0-10.3,1.3-13.9,3.9
		c-3.5,2.6-5.3,5.9-5.3,10c0,3.5,1.5,6.6,4.7,9.3c3.1,2.7,8.4,5.6,15.8,8.9c7.5,3.2,13.3,6.2,17.4,8.9c4.2,2.8,7.6,5.8,10.2,9.2
		c2.7,3.3,4.7,6.9,6,10.6c1.3,3.7,2,7.6,2,11.8c0,9.7-3.5,17.9-10.5,24.7c-7,6.8-15.5,10.2-25.5,10.2c-9.7,0-18.3-2.7-25.8-8
		c-7.5-5.3-13.2-13.3-17.2-23.9l15.9-4.5c5.8,13.1,14.6,19.6,26.5,19.6c5.8,0,10.6-1.7,14.4-5.2c3.8-3.5,5.7-7.8,5.7-13.1
		c0-3.1-1-6.3-3-9.5c-2-3.2-4.5-5.8-7.5-7.9c-3-2.1-7.7-4.4-14.2-7.1c-6.5-2.7-11.5-5.1-15-7.3c-3.5-2.2-6.5-4.9-9.1-7.9
		c-2.6-3.1-4.4-6.1-5.6-9.2c-1.2-3-1.8-6.3-1.8-9.7c0-8.3,3.3-15.4,10-21.3c6.7-5.9,14.8-8.8,24.3-8.8c6.3,0,12.7,1.4,19.2,4.1
		C229.8,82.4,235.2,86.5,239.5,92.1z"/>
	<path class="st0" d="M357.8,74.3l31.8,121H374l-19.2-73.9L321.6,195l-33.1-74.3L269,195.3h-15.5l31.8-121l36.4,86.6L357.8,74.3z"/>
	<path class="st0" d="M376.1,74.3h16.7l37.9,83.1L466,74.3h16.9L430.5,195L376.1,74.3z"/>
	<path class="st0" d="M495.7,74.2h28.2c22.3,0,38.9,5.9,49.8,17.8c10.9,11.9,16.3,25.4,16.3,40.6c0,15.3-5.6,28.9-16.9,40.7
		c-11.2,11.8-27.6,17.7-49,17.7h-28.4V74.2z M511.6,89.8v85.4h0.9c11.8,0,20.7-0.5,26.6-1.6c6-1.1,11.6-3.4,17-7
		c5.4-3.6,9.6-8.4,12.8-14.3s4.7-12.5,4.7-19.7c0-9-2.5-17.1-7.6-24.4c-5-7.3-11.1-12.2-18.1-14.7c-7-2.5-16.5-3.8-28.3-3.8H511.6z"
		/>
</g>
<g>
	<path class="st0" d="M257.1,234.3c-1,0.5-3,1-5.6,1c-6,0-10.4-3.8-10.4-10.7c0-6.6,4.5-11.1,11-11.1c2.6,0,4.3,0.6,5,0.9l-0.7,2.2
		c-1-0.5-2.5-0.9-4.3-0.9c-5,0-8.3,3.2-8.3,8.7c0,5.2,3,8.5,8.1,8.5c1.7,0,3.4-0.3,4.5-0.9L257.1,234.3z"/>
	<path class="st0" d="M260.3,224.5c0-1.8,0-3.3-0.1-4.7h2.4l0.1,3h0.1c0.7-2,2.4-3.3,4.2-3.3c0.3,0,0.5,0,0.8,0.1v2.6
		c-0.3-0.1-0.6-0.1-0.9-0.1c-1.9,0-3.3,1.5-3.7,3.5c-0.1,0.4-0.1,0.8-0.1,1.3v8.1h-2.7V224.5z"/>
	<path class="st0" d="M271.8,227.9c0.1,3.7,2.4,5.3,5.2,5.3c2,0,3.2-0.3,4.2-0.8l0.5,2c-1,0.4-2.6,1-5.1,1c-4.7,0-7.5-3.1-7.5-7.7
		c0-4.6,2.7-8.2,7.1-8.2c5,0,6.3,4.4,6.3,7.2c0,0.6-0.1,1-0.1,1.3H271.8z M279.8,225.9c0-1.8-0.7-4.5-3.8-4.5c-2.8,0-4,2.6-4.2,4.5
		H279.8z"/>
	<path class="st0" d="M296.6,231.4c0,1.3,0.1,2.6,0.3,3.6h-2.5l-0.2-1.9H294c-0.8,1.2-2.5,2.3-4.6,2.3c-3.1,0-4.6-2.2-4.6-4.4
		c0-3.7,3.3-5.7,9.1-5.6V225c0-1.3-0.3-3.5-3.5-3.5c-1.4,0-2.9,0.4-4,1.1l-0.6-1.8c1.3-0.8,3.1-1.3,5-1.3c4.6,0,5.8,3.2,5.8,6.2
		V231.4z M293.9,227.2c-3-0.1-6.4,0.5-6.4,3.4c0,1.8,1.2,2.6,2.6,2.6c2,0,3.2-1.3,3.7-2.5c0.1-0.3,0.2-0.6,0.2-0.9V227.2z"/>
	<path class="st0" d="M304.2,216.2v3.6h4v2.1h-4v8.2c0,1.9,0.5,2.9,2.1,2.9c0.8,0,1.2-0.1,1.6-0.2l0.1,2.1c-0.5,0.2-1.4,0.4-2.4,0.4
		c-1.3,0-2.3-0.4-3-1.2c-0.8-0.8-1.1-2.2-1.1-4v-8.3h-2.4v-2.1h2.4V217L304.2,216.2z"/>
	<path class="st0" d="M314.4,215.5c0,0.9-0.7,1.7-1.8,1.7c-1,0-1.7-0.8-1.7-1.7c0-1,0.7-1.7,1.7-1.7
		C313.7,213.8,314.4,214.6,314.4,215.5z M311.3,235v-15.2h2.8V235H311.3z"/>
	<path class="st0" d="M319.7,219.8l3,8.5c0.5,1.4,0.9,2.6,1.2,3.9h0.1c0.3-1.3,0.8-2.5,1.3-3.9l3-8.5h2.9l-6,15.2h-2.6l-5.8-15.2
		H319.7z"/>
	<path class="st0" d="M334.9,227.9c0.1,3.7,2.4,5.3,5.2,5.3c2,0,3.2-0.3,4.2-0.8l0.5,2c-1,0.4-2.6,1-5.1,1c-4.7,0-7.5-3.1-7.5-7.7
		c0-4.6,2.7-8.2,7.1-8.2c5,0,6.3,4.4,6.3,7.2c0,0.6-0.1,1-0.1,1.3H334.9z M343,225.9c0-1.8-0.7-4.5-3.8-4.5c-2.8,0-4,2.6-4.2,4.5
		H343z"/>
	<path class="st0" d="M358.8,215.5c0,0.9-0.7,1.7-1.8,1.7c-1,0-1.7-0.8-1.7-1.7c0-1,0.7-1.7,1.7-1.7
		C358.2,213.8,358.8,214.6,358.8,215.5z M355.8,235v-15.2h2.8V235H355.8z"/>
	<path class="st0" d="M363.1,223.9c0-1.6,0-2.9-0.1-4.1h2.4l0.2,2.5h0.1c0.8-1.4,2.5-2.9,5-2.9c2.1,0,5.4,1.3,5.4,6.5v9.1h-2.8v-8.8
		c0-2.4-0.9-4.5-3.5-4.5c-1.8,0-3.2,1.3-3.7,2.8c-0.1,0.3-0.2,0.8-0.2,1.3v9.1h-2.8V223.9z"/>
	<path class="st0" d="M380.1,232.2c0.8,0.5,2.3,1.1,3.6,1.1c2,0,2.9-1,2.9-2.3c0-1.3-0.8-2-2.8-2.8c-2.7-1-4-2.5-4-4.3
		c0-2.4,2-4.5,5.2-4.5c1.5,0,2.9,0.4,3.7,0.9l-0.7,2c-0.6-0.4-1.7-0.9-3.1-0.9c-1.6,0-2.5,0.9-2.5,2.1c0,1.3,0.9,1.8,2.9,2.6
		c2.6,1,4,2.3,4,4.6c0,2.7-2.1,4.6-5.7,4.6c-1.7,0-3.2-0.4-4.3-1.1L380.1,232.2z"/>
	<path class="st0" d="M392.9,224.8c0-1.9-0.1-3.5-0.1-5h2.5l0.1,2.6h0.1c1.1-1.9,2.9-2.9,5.4-2.9c3.7,0,6.4,3.1,6.4,7.7
		c0,5.5-3.3,8.2-6.9,8.2c-2,0-3.8-0.9-4.7-2.4h-0.1v8.2h-2.7V224.8z M395.7,228.8c0,0.4,0.1,0.8,0.1,1.1c0.5,1.9,2.2,3.2,4.1,3.2
		c2.9,0,4.6-2.4,4.6-5.9c0-3-1.6-5.6-4.5-5.6c-1.9,0-3.6,1.3-4.2,3.4c-0.1,0.3-0.2,0.8-0.2,1.1V228.8z"/>
	<path class="st0" d="M413.8,215.5c0,0.9-0.7,1.7-1.8,1.7c-1,0-1.7-0.8-1.7-1.7c0-1,0.7-1.7,1.7-1.7
		C413.2,213.8,413.8,214.6,413.8,215.5z M410.8,235v-15.2h2.8V235H410.8z"/>
	<path class="st0" d="M418.1,224.5c0-1.8,0-3.3-0.1-4.7h2.4l0.1,3h0.1c0.7-2,2.4-3.3,4.2-3.3c0.3,0,0.5,0,0.8,0.1v2.6
		c-0.3-0.1-0.6-0.1-0.9-0.1c-1.9,0-3.3,1.5-3.7,3.5c-0.1,0.4-0.1,0.8-0.1,1.3v8.1h-2.7V224.5z"/>
	<path class="st0" d="M438.9,231.4c0,1.3,0.1,2.6,0.3,3.6h-2.5l-0.2-1.9h-0.1c-0.8,1.2-2.5,2.3-4.6,2.3c-3.1,0-4.6-2.2-4.6-4.4
		c0-3.7,3.3-5.7,9.1-5.6V225c0-1.3-0.3-3.5-3.5-3.5c-1.4,0-2.9,0.4-4,1.1l-0.6-1.8c1.3-0.8,3.1-1.3,5-1.3c4.6,0,5.8,3.2,5.8,6.2
		V231.4z M436.2,227.2c-3-0.1-6.4,0.5-6.4,3.4c0,1.8,1.2,2.6,2.6,2.6c2,0,3.2-1.3,3.7-2.5c0.1-0.3,0.2-0.6,0.2-0.9V227.2z"/>
	<path class="st0" d="M446.5,216.2v3.6h4v2.1h-4v8.2c0,1.9,0.5,2.9,2.1,2.9c0.8,0,1.2-0.1,1.6-0.2l0.1,2.1c-0.5,0.2-1.4,0.4-2.4,0.4
		c-1.3,0-2.3-0.4-3-1.2c-0.8-0.8-1.1-2.2-1.1-4v-8.3h-2.4v-2.1h2.4V217L446.5,216.2z"/>
	<path class="st0" d="M456.7,215.5c0,0.9-0.7,1.7-1.8,1.7c-1,0-1.7-0.8-1.7-1.7c0-1,0.7-1.7,1.7-1.7
		C456,213.8,456.7,214.6,456.7,215.5z M453.6,235v-15.2h2.8V235H453.6z"/>
	<path class="st0" d="M474.7,227.3c0,5.6-3.9,8.1-7.6,8.1c-4.1,0-7.3-3-7.3-7.8c0-5.1,3.3-8.1,7.5-8.1
		C471.7,219.5,474.7,222.6,474.7,227.3z M462.6,227.4c0,3.3,1.9,5.8,4.6,5.8c2.6,0,4.6-2.5,4.6-5.9c0-2.6-1.3-5.8-4.5-5.8
		C464,221.5,462.6,224.5,462.6,227.4z"/>
	<path class="st0" d="M478.1,223.9c0-1.6,0-2.9-0.1-4.1h2.4l0.2,2.5h0.1c0.8-1.4,2.5-2.9,5-2.9c2.1,0,5.4,1.3,5.4,6.5v9.1h-2.8v-8.8
		c0-2.4-0.9-4.5-3.5-4.5c-1.8,0-3.2,1.3-3.7,2.8c-0.1,0.3-0.2,0.8-0.2,1.3v9.1h-2.8V223.9z"/>
</g>
</svg>
